<svg xmlns="http://www.w3.org/2000/svg" xmlns:xlink="http://www.w3.org/1999/xlink" viewBox="0,0,256,256" width="100px" height="100px" fill-rule="none"><g fill="none" fill-rule="none" stroke="none" stroke-width="1" stroke-linecap="butt" stroke-linejoin="miter" stroke-miterlimit="10" stroke-dasharray="" stroke-dashoffset="0" font-family="none" font-weight="none" font-size="none" text-anchor="none" style="mix-blend-mode: normal"><g transform="scale(2.56,2.56)"><path d="M48.067,13.504c1.196,-0.671 2.669,-0.671 3.864,0c5.911,3.318 23.699,13.304 29.612,16.622c1.196,0.67 1.933,1.91 1.933,3.252c0,6.635 0,26.607 0,33.242c0,1.343 -0.736,2.583 -1.933,3.254c-5.911,3.318 -23.699,13.304 -29.612,16.622c-1.196,0.671 -2.669,0.671 -3.864,0c-5.911,-3.318 -23.699,-13.304 -29.612,-16.622c-1.195,-0.671 -1.931,-1.91 -1.931,-3.252c0,-6.635 0,-26.607 0,-33.242c0,-1.343 0.736,-2.583 1.933,-3.254c5.909,-3.317 23.701,-13.304 29.61,-16.622z" fill="#000000" fill-rule="evenodd"></path><path d="M17.059,68.331c-0.469,-0.627 -0.536,-1.223 -0.536,-2.024c0,-6.597 0,-26.453 0,-33.052c0,-1.336 0.735,-2.569 1.928,-3.235c5.89,-3.298 23.618,-13.227 29.508,-16.527c1.193,-0.668 2.808,-0.654 4.001,0.014c5.89,3.298 23.558,13.142 29.448,16.44c0.476,0.268 0.839,0.59 1.163,1.015z" fill="#000000" fill-rule="evenodd"></path><path d="M50,26.001c13.246,0 24,10.753 24,24c0,13.247 -10.754,23.999 -24,23.999c-13.246,0 -24,-10.754 -24,-24c0,-13.246 10.754,-23.999 24,-23.999zM50,38.001c6.622,0 12,5.376 12,12c0,6.622 -5.378,12 -12,12c-6.622,0 -12,-5.378 -12,-12c0,-6.624 5.376,-12 12,-12z" fill="#ffffff" fill-rule="evenodd"></path><path d="M82.569,30.981c0.909,0.851 0.892,2.134 0.892,3.143c0,6.686 -0.056,25.704 0.016,32.391c0.007,0.698 -0.224,1.432 -0.569,1.986l-33.625,-18.501z" fill="#000000" fill-rule="evenodd"></path><path d="M49.999,87.998c-0.83,0 -1.66,-0.211 -2.399,-0.634l-29.19,-16.62c-1.487,-0.848 -2.41,-2.427 -2.41,-4.122v-33.241c0,-1.697 0.924,-3.277 2.41,-4.124l29.19,-16.621c1.482,-0.844 3.322,-0.844 4.799,0.001l29.19,16.62c1.487,0.845 2.411,2.425 2.411,4.122v33.241c0,1.696 -0.924,3.276 -2.41,4.124l-29.193,16.621c-0.739,0.422 -1.569,0.633 -2.398,0.633zM49.999,14.002c-0.487,0 -0.975,0.124 -1.409,0.372l-29.19,16.621c-0.864,0.491 -1.4,1.406 -1.4,2.386v33.241c0,0.979 0.536,1.893 1.398,2.385l29.191,16.62c0.869,0.496 1.949,0.496 2.818,0l29.193,-16.621c0.863,-0.492 1.4,-1.406 1.4,-2.386v-33.241c0,-0.979 -0.536,-1.893 -1.399,-2.384l-29.193,-16.621c-0.434,-0.248 -0.922,-0.372 -1.409,-0.372z" fill="#1f212b" fill-rule="nonzero"></path><path d="M47.125,19.121c-0.175,0 -0.345,-0.092 -0.436,-0.255c-0.136,-0.241 -0.05,-0.546 0.19,-0.681l2.9,-1.628c0.243,-0.137 0.547,-0.05 0.681,0.19c0.136,0.241 0.05,0.546 -0.19,0.681l-2.9,1.628c-0.078,0.045 -0.162,0.065 -0.245,0.065z" fill="#1f212b" fill-rule="nonzero"></path><path d="M35.761,25.5c-0.175,0 -0.345,-0.092 -0.436,-0.255c-0.136,-0.241 -0.05,-0.546 0.19,-0.681l9.739,-5.467c0.243,-0.137 0.547,-0.051 0.681,0.19c0.136,0.241 0.05,0.546 -0.19,0.681l-9.739,5.467c-0.078,0.044 -0.162,0.065 -0.245,0.065z" fill="#1f212b" fill-rule="nonzero"></path><path d="M20.523,63.75c-0.276,0 -0.5,-0.224 -0.5,-0.5v-29.697c0,-0.181 0.098,-0.348 0.255,-0.436l10.852,-6.091c0.243,-0.137 0.547,-0.051 0.681,0.19c0.136,0.241 0.05,0.546 -0.19,0.681l-10.597,5.948v29.405c-0.001,0.276 -0.224,0.5 -0.501,0.5z" fill="#1f212b" fill-rule="nonzero"></path><path d="M57.5,79.283c-0.175,0 -0.345,-0.092 -0.436,-0.255c-0.136,-0.241 -0.05,-0.546 0.19,-0.681l5.125,-2.877c0.243,-0.137 0.547,-0.051 0.681,0.19c0.136,0.241 0.05,0.546 -0.19,0.681l-5.125,2.877c-0.078,0.045 -0.162,0.065 -0.245,0.065z" fill="#1f212b" fill-rule="nonzero"></path><path d="M65.75,74.652c-0.175,0 -0.345,-0.092 -0.436,-0.255c-0.136,-0.241 -0.05,-0.546 0.19,-0.681l13.472,-7.562v-32.601c0,-0.276 0.224,-0.5 0.5,-0.5c0.276,0 0.5,0.224 0.5,0.5v32.896c0,0.181 -0.098,0.348 -0.255,0.436l-13.727,7.704c-0.077,0.043 -0.161,0.063 -0.244,0.063z" fill="#1f212b" fill-rule="nonzero"></path><path d="M49.97,74.045c-13.258,0 -24.044,-10.786 -24.044,-24.045c0,-13.258 10.786,-24.044 24.044,-24.044c8.449,0 16.381,4.528 20.699,11.817c0.067,0.115 0.087,0.253 0.053,0.383c-0.034,0.129 -0.119,0.24 -0.235,0.307l-10.231,5.846c-0.231,0.132 -0.532,0.059 -0.675,-0.174c-2.072,-3.385 -5.665,-5.406 -9.61,-5.406c-6.215,0 -11.271,5.057 -11.271,11.271c0,6.216 5.057,11.272 11.271,11.272c3.965,0 7.686,-2.135 9.71,-5.57c0.137,-0.234 0.437,-0.314 0.672,-0.185l10.321,5.679c0.117,0.065 0.204,0.174 0.24,0.303c0.036,0.129 0.02,0.267 -0.047,0.384c-4.279,7.502 -12.286,12.162 -20.897,12.162zM49.97,26.956c-12.706,0 -23.044,10.338 -23.044,23.044c0,12.707 10.338,23.045 23.044,23.045c8.084,0 15.613,-4.286 19.771,-11.22l-9.455,-5.202c-2.252,3.497 -6.16,5.649 -10.316,5.649c-6.767,0 -12.271,-5.506 -12.271,-12.272c0,-6.766 5.505,-12.271 12.271,-12.271c4.135,0 7.914,2.037 10.202,5.476l9.372,-5.355c-4.192,-6.733 -11.646,-10.894 -19.574,-10.894z" fill="#1f212b" fill-rule="nonzero"></path><path d="M65.905,37.549c-0.145,0 -0.288,-0.063 -0.388,-0.184c-2.681,-3.283 -6.416,-5.684 -10.52,-6.76c-0.267,-0.069 -0.427,-0.343 -0.356,-0.61c0.069,-0.268 0.34,-0.432 0.61,-0.356c4.306,1.129 8.227,3.648 11.041,7.094c0.174,0.214 0.143,0.529 -0.071,0.704c-0.092,0.075 -0.204,0.112 -0.316,0.112z" fill="#1f212b" fill-rule="nonzero"></path><path d="M43,69.828c-0.057,0 -0.114,-0.01 -0.17,-0.03c-8.316,-3.009 -13.904,-10.965 -13.904,-19.798c0,-11.604 9.44,-21.044 21.044,-21.044c0.276,0 0.5,0.224 0.5,0.5c0,0.276 -0.224,0.5 -0.5,0.5c-11.053,0 -20.044,8.991 -20.044,20.044c0,8.413 5.322,15.991 13.244,18.858c0.26,0.094 0.395,0.38 0.3,0.64c-0.074,0.204 -0.266,0.33 -0.47,0.33z" fill="#1f212b" fill-rule="nonzero"></path><path d="M49.97,71.045c-1.321,0 -2.646,-0.124 -3.938,-0.369c-0.271,-0.052 -0.45,-0.313 -0.398,-0.584c0.052,-0.272 0.317,-0.449 0.584,-0.398c1.23,0.233 2.493,0.352 3.752,0.352c0.276,0 0.5,0.224 0.5,0.5c0,0.276 -0.224,0.499 -0.5,0.499z" fill="#1f212b" fill-rule="nonzero"></path></g></g></svg>